<svg xmlns="http://www.w3.org/2000/svg" width="80" height="112" shape-rendering="crispEdges">
  <!-- Card background -->
  <rect width="80" height="112" fill="#f5f0e8"/>
  <!-- Pixel border -->
  
    <rect x="0" y="0" width="80" height="2" fill="#1a1a2e"/>
    <rect x="0" y="110" width="80" height="2" fill="#1a1a2e"/>
    <rect x="0" y="0" width="2" height="112" fill="#1a1a2e"/>
    <rect x="78" y="0" width="2" height="112" fill="#1a1a2e"/>
    <rect x="2" y="2" width="76" height="2" fill="#1a1a2e" opacity="0.3"/>
    <rect x="2" y="108" width="76" height="2" fill="#1a1a2e" opacity="0.3"/>
    <rect x="2" y="2" width="2" height="108" fill="#1a1a2e" opacity="0.3"/>
    <rect x="76" y="2" width="2" height="108" fill="#1a1a2e" opacity="0.3"/>
  
  <!-- Rank top-left -->
  <rect x="6" y="5" width="1" height="1" fill="#1a1a2e"/><rect x="7" y="5" width="1" height="1" fill="#1a1a2e"/><rect x="8" y="5" width="1" height="1" fill="#1a1a2e"/><rect x="5" y="6" width="1" height="1" fill="#1a1a2e"/><rect x="9" y="6" width="1" height="1" fill="#1a1a2e"/><rect x="5" y="7" width="1" height="1" fill="#1a1a2e"/><rect x="9" y="7" width="1" height="1" fill="#1a1a2e"/><rect x="6" y="8" width="1" height="1" fill="#1a1a2e"/><rect x="7" y="8" width="1" height="1" fill="#1a1a2e"/><rect x="8" y="8" width="1" height="1" fill="#1a1a2e"/><rect x="5" y="9" width="1" height="1" fill="#1a1a2e"/><rect x="9" y="9" width="1" height="1" fill="#1a1a2e"/><rect x="5" y="10" width="1" height="1" fill="#1a1a2e"/><rect x="9" y="10" width="1" height="1" fill="#1a1a2e"/><rect x="6" y="11" width="1" height="1" fill="#1a1a2e"/><rect x="7" y="11" width="1" height="1" fill="#1a1a2e"/><rect x="8" y="11" width="1" height="1" fill="#1a1a2e"/>
  <!-- Small suit top-left -->
  <rect x="12" y="15" width="2" height="2" fill="#1a1a2e"/><rect x="10" y="17" width="2" height="2" fill="#1a1a2e"/><rect x="12" y="17" width="2" height="2" fill="#1a1a2e"/><rect x="14" y="17" width="2" height="2" fill="#1a1a2e"/><rect x="8" y="19" width="2" height="2" fill="#1a1a2e"/><rect x="10" y="19" width="2" height="2" fill="#1a1a2e"/><rect x="12" y="19" width="2" height="2" fill="#1a1a2e"/><rect x="14" y="19" width="2" height="2" fill="#1a1a2e"/><rect x="16" y="19" width="2" height="2" fill="#1a1a2e"/><rect x="6" y="21" width="2" height="2" fill="#1a1a2e"/><rect x="8" y="21" width="2" height="2" fill="#1a1a2e"/><rect x="10" y="21" width="2" height="2" fill="#1a1a2e"/><rect x="12" y="21" width="2" height="2" fill="#1a1a2e"/><rect x="14" y="21" width="2" height="2" fill="#1a1a2e"/><rect x="16" y="21" width="2" height="2" fill="#1a1a2e"/><rect x="18" y="21" width="2" height="2" fill="#1a1a2e"/><rect x="6" y="23" width="2" height="2" fill="#1a1a2e"/><rect x="8" y="23" width="2" height="2" fill="#1a1a2e"/><rect x="10" y="23" width="2" height="2" fill="#1a1a2e"/><rect x="12" y="23" width="2" height="2" fill="#1a1a2e"/><rect x="14" y="23" width="2" height="2" fill="#1a1a2e"/><rect x="16" y="23" width="2" height="2" fill="#1a1a2e"/><rect x="18" y="23" width="2" height="2" fill="#1a1a2e"/><rect x="10" y="25" width="2" height="2" fill="#1a1a2e"/><rect x="12" y="25" width="2" height="2" fill="#1a1a2e"/><rect x="14" y="25" width="2" height="2" fill="#1a1a2e"/><rect x="8" y="27" width="2" height="2" fill="#1a1a2e"/><rect x="10" y="27" width="2" height="2" fill="#1a1a2e"/><rect x="14" y="27" width="2" height="2" fill="#1a1a2e"/><rect x="16" y="27" width="2" height="2" fill="#1a1a2e"/>
  <!-- Center suit -->
  <rect x="38" y="42" width="4" height="4" fill="#1a1a2e"/><rect x="34" y="46" width="4" height="4" fill="#1a1a2e"/><rect x="38" y="46" width="4" height="4" fill="#1a1a2e"/><rect x="42" y="46" width="4" height="4" fill="#1a1a2e"/><rect x="30" y="50" width="4" height="4" fill="#1a1a2e"/><rect x="34" y="50" width="4" height="4" fill="#1a1a2e"/><rect x="38" y="50" width="4" height="4" fill="#1a1a2e"/><rect x="42" y="50" width="4" height="4" fill="#1a1a2e"/><rect x="46" y="50" width="4" height="4" fill="#1a1a2e"/><rect x="26" y="54" width="4" height="4" fill="#1a1a2e"/><rect x="30" y="54" width="4" height="4" fill="#1a1a2e"/><rect x="34" y="54" width="4" height="4" fill="#1a1a2e"/><rect x="38" y="54" width="4" height="4" fill="#1a1a2e"/><rect x="42" y="54" width="4" height="4" fill="#1a1a2e"/><rect x="46" y="54" width="4" height="4" fill="#1a1a2e"/><rect x="50" y="54" width="4" height="4" fill="#1a1a2e"/><rect x="26" y="58" width="4" height="4" fill="#1a1a2e"/><rect x="30" y="58" width="4" height="4" fill="#1a1a2e"/><rect x="34" y="58" width="4" height="4" fill="#1a1a2e"/><rect x="38" y="58" width="4" height="4" fill="#1a1a2e"/><rect x="42" y="58" width="4" height="4" fill="#1a1a2e"/><rect x="46" y="58" width="4" height="4" fill="#1a1a2e"/><rect x="50" y="58" width="4" height="4" fill="#1a1a2e"/><rect x="34" y="62" width="4" height="4" fill="#1a1a2e"/><rect x="38" y="62" width="4" height="4" fill="#1a1a2e"/><rect x="42" y="62" width="4" height="4" fill="#1a1a2e"/><rect x="30" y="66" width="4" height="4" fill="#1a1a2e"/><rect x="34" y="66" width="4" height="4" fill="#1a1a2e"/><rect x="42" y="66" width="4" height="4" fill="#1a1a2e"/><rect x="46" y="66" width="4" height="4" fill="#1a1a2e"/>
  <!-- Rank bottom-right (rotated via transform) -->
  <g transform="rotate(180, 40, 56)">
    <rect x="6" y="5" width="1" height="1" fill="#1a1a2e"/><rect x="7" y="5" width="1" height="1" fill="#1a1a2e"/><rect x="8" y="5" width="1" height="1" fill="#1a1a2e"/><rect x="5" y="6" width="1" height="1" fill="#1a1a2e"/><rect x="9" y="6" width="1" height="1" fill="#1a1a2e"/><rect x="5" y="7" width="1" height="1" fill="#1a1a2e"/><rect x="9" y="7" width="1" height="1" fill="#1a1a2e"/><rect x="6" y="8" width="1" height="1" fill="#1a1a2e"/><rect x="7" y="8" width="1" height="1" fill="#1a1a2e"/><rect x="8" y="8" width="1" height="1" fill="#1a1a2e"/><rect x="5" y="9" width="1" height="1" fill="#1a1a2e"/><rect x="9" y="9" width="1" height="1" fill="#1a1a2e"/><rect x="5" y="10" width="1" height="1" fill="#1a1a2e"/><rect x="9" y="10" width="1" height="1" fill="#1a1a2e"/><rect x="6" y="11" width="1" height="1" fill="#1a1a2e"/><rect x="7" y="11" width="1" height="1" fill="#1a1a2e"/><rect x="8" y="11" width="1" height="1" fill="#1a1a2e"/>
    <rect x="12" y="15" width="2" height="2" fill="#1a1a2e"/><rect x="10" y="17" width="2" height="2" fill="#1a1a2e"/><rect x="12" y="17" width="2" height="2" fill="#1a1a2e"/><rect x="14" y="17" width="2" height="2" fill="#1a1a2e"/><rect x="8" y="19" width="2" height="2" fill="#1a1a2e"/><rect x="10" y="19" width="2" height="2" fill="#1a1a2e"/><rect x="12" y="19" width="2" height="2" fill="#1a1a2e"/><rect x="14" y="19" width="2" height="2" fill="#1a1a2e"/><rect x="16" y="19" width="2" height="2" fill="#1a1a2e"/><rect x="6" y="21" width="2" height="2" fill="#1a1a2e"/><rect x="8" y="21" width="2" height="2" fill="#1a1a2e"/><rect x="10" y="21" width="2" height="2" fill="#1a1a2e"/><rect x="12" y="21" width="2" height="2" fill="#1a1a2e"/><rect x="14" y="21" width="2" height="2" fill="#1a1a2e"/><rect x="16" y="21" width="2" height="2" fill="#1a1a2e"/><rect x="18" y="21" width="2" height="2" fill="#1a1a2e"/><rect x="6" y="23" width="2" height="2" fill="#1a1a2e"/><rect x="8" y="23" width="2" height="2" fill="#1a1a2e"/><rect x="10" y="23" width="2" height="2" fill="#1a1a2e"/><rect x="12" y="23" width="2" height="2" fill="#1a1a2e"/><rect x="14" y="23" width="2" height="2" fill="#1a1a2e"/><rect x="16" y="23" width="2" height="2" fill="#1a1a2e"/><rect x="18" y="23" width="2" height="2" fill="#1a1a2e"/><rect x="10" y="25" width="2" height="2" fill="#1a1a2e"/><rect x="12" y="25" width="2" height="2" fill="#1a1a2e"/><rect x="14" y="25" width="2" height="2" fill="#1a1a2e"/><rect x="8" y="27" width="2" height="2" fill="#1a1a2e"/><rect x="10" y="27" width="2" height="2" fill="#1a1a2e"/><rect x="14" y="27" width="2" height="2" fill="#1a1a2e"/><rect x="16" y="27" width="2" height="2" fill="#1a1a2e"/>
  </g>
</svg>