<svg xmlns="http://www.w3.org/2000/svg" width="80" height="112" shape-rendering="crispEdges">
  <rect x="0" y="0" width="8" height="8" fill="#1a1a2e"/><rect x="8" y="0" width="8" height="8" fill="#16213e"/><rect x="16" y="0" width="8" height="8" fill="#0f3460"/><rect x="24" y="0" width="8" height="8" fill="#1a1a2e"/><rect x="32" y="0" width="8" height="8" fill="#1a1a2e"/><rect x="40" y="0" width="8" height="8" fill="#16213e"/><rect x="48" y="0" width="8" height="8" fill="#0f3460"/><rect x="56" y="0" width="8" height="8" fill="#1a1a2e"/><rect x="64" y="0" width="8" height="8" fill="#1a1a2e"/><rect x="72" y="0" width="8" height="8" fill="#16213e"/><rect x="0" y="8" width="8" height="8" fill="#16213e"/><rect x="8" y="8" width="8" height="8" fill="#0f3460"/><rect x="16" y="8" width="8" height="8" fill="#1a1a2e"/><rect x="24" y="8" width="8" height="8" fill="#1a1a2e"/><rect x="32" y="8" width="8" height="8" fill="#16213e"/><rect x="40" y="8" width="8" height="8" fill="#0f3460"/><rect x="48" y="8" width="8" height="8" fill="#1a1a2e"/><rect x="56" y="8" width="8" height="8" fill="#1a1a2e"/><rect x="64" y="8" width="8" height="8" fill="#16213e"/><rect x="72" y="8" width="8" height="8" fill="#0f3460"/><rect x="0" y="16" width="8" height="8" fill="#0f3460"/><rect x="8" y="16" width="8" height="8" fill="#1a1a2e"/><rect x="16" y="16" width="8" height="8" fill="#1a1a2e"/><rect x="24" y="16" width="8" height="8" fill="#16213e"/><rect x="32" y="16" width="8" height="8" fill="#0f3460"/><rect x="40" y="16" width="8" height="8" fill="#1a1a2e"/><rect x="48" y="16" width="8" height="8" fill="#1a1a2e"/><rect x="56" y="16" width="8" height="8" fill="#16213e"/><rect x="64" y="16" width="8" height="8" fill="#0f3460"/><rect x="72" y="16" width="8" height="8" fill="#1a1a2e"/><rect x="0" y="24" width="8" height="8" fill="#1a1a2e"/><rect x="8" y="24" width="8" height="8" fill="#1a1a2e"/><rect x="16" y="24" width="8" height="8" fill="#16213e"/><rect x="24" y="24" width="8" height="8" fill="#0f3460"/><rect x="32" y="24" width="8" height="8" fill="#1a1a2e"/><rect x="40" y="24" width="8" height="8" fill="#1a1a2e"/><rect x="48" y="24" width="8" height="8" fill="#16213e"/><rect x="56" y="24" width="8" height="8" fill="#0f3460"/><rect x="64" y="24" width="8" height="8" fill="#1a1a2e"/><rect x="72" y="24" width="8" height="8" fill="#1a1a2e"/><rect x="0" y="32" width="8" height="8" fill="#1a1a2e"/><rect x="8" y="32" width="8" height="8" fill="#16213e"/><rect x="16" y="32" width="8" height="8" fill="#0f3460"/><rect x="24" y="32" width="8" height="8" fill="#1a1a2e"/><rect x="32" y="32" width="8" height="8" fill="#1a1a2e"/><rect x="40" y="32" width="8" height="8" fill="#16213e"/><rect x="48" y="32" width="8" height="8" fill="#0f3460"/><rect x="56" y="32" width="8" height="8" fill="#1a1a2e"/><rect x="64" y="32" width="8" height="8" fill="#1a1a2e"/><rect x="72" y="32" width="8" height="8" fill="#16213e"/><rect x="0" y="40" width="8" height="8" fill="#16213e"/><rect x="8" y="40" width="8" height="8" fill="#0f3460"/><rect x="16" y="40" width="8" height="8" fill="#1a1a2e"/><rect x="24" y="40" width="8" height="8" fill="#1a1a2e"/><rect x="32" y="40" width="8" height="8" fill="#16213e"/><rect x="40" y="40" width="8" height="8" fill="#0f3460"/><rect x="48" y="40" width="8" height="8" fill="#1a1a2e"/><rect x="56" y="40" width="8" height="8" fill="#1a1a2e"/><rect x="64" y="40" width="8" height="8" fill="#16213e"/><rect x="72" y="40" width="8" height="8" fill="#0f3460"/><rect x="0" y="48" width="8" height="8" fill="#0f3460"/><rect x="8" y="48" width="8" height="8" fill="#1a1a2e"/><rect x="16" y="48" width="8" height="8" fill="#1a1a2e"/><rect x="24" y="48" width="8" height="8" fill="#16213e"/><rect x="32" y="48" width="8" height="8" fill="#0f3460"/><rect x="40" y="48" width="8" height="8" fill="#1a1a2e"/><rect x="48" y="48" width="8" height="8" fill="#1a1a2e"/><rect x="56" y="48" width="8" height="8" fill="#16213e"/><rect x="64" y="48" width="8" height="8" fill="#0f3460"/><rect x="72" y="48" width="8" height="8" fill="#1a1a2e"/><rect x="0" y="56" width="8" height="8" fill="#1a1a2e"/><rect x="8" y="56" width="8" height="8" fill="#1a1a2e"/><rect x="16" y="56" width="8" height="8" fill="#16213e"/><rect x="24" y="56" width="8" height="8" fill="#0f3460"/><rect x="32" y="56" width="8" height="8" fill="#1a1a2e"/><rect x="40" y="56" width="8" height="8" fill="#1a1a2e"/><rect x="48" y="56" width="8" height="8" fill="#16213e"/><rect x="56" y="56" width="8" height="8" fill="#0f3460"/><rect x="64" y="56" width="8" height="8" fill="#1a1a2e"/><rect x="72" y="56" width="8" height="8" fill="#1a1a2e"/><rect x="0" y="64" width="8" height="8" fill="#1a1a2e"/><rect x="8" y="64" width="8" height="8" fill="#16213e"/><rect x="16" y="64" width="8" height="8" fill="#0f3460"/><rect x="24" y="64" width="8" height="8" fill="#1a1a2e"/><rect x="32" y="64" width="8" height="8" fill="#1a1a2e"/><rect x="40" y="64" width="8" height="8" fill="#16213e"/><rect x="48" y="64" width="8" height="8" fill="#0f3460"/><rect x="56" y="64" width="8" height="8" fill="#1a1a2e"/><rect x="64" y="64" width="8" height="8" fill="#1a1a2e"/><rect x="72" y="64" width="8" height="8" fill="#16213e"/><rect x="0" y="72" width="8" height="8" fill="#16213e"/><rect x="8" y="72" width="8" height="8" fill="#0f3460"/><rect x="16" y="72" width="8" height="8" fill="#1a1a2e"/><rect x="24" y="72" width="8" height="8" fill="#1a1a2e"/><rect x="32" y="72" width="8" height="8" fill="#16213e"/><rect x="40" y="72" width="8" height="8" fill="#0f3460"/><rect x="48" y="72" width="8" height="8" fill="#1a1a2e"/><rect x="56" y="72" width="8" height="8" fill="#1a1a2e"/><rect x="64" y="72" width="8" height="8" fill="#16213e"/><rect x="72" y="72" width="8" height="8" fill="#0f3460"/><rect x="0" y="80" width="8" height="8" fill="#0f3460"/><rect x="8" y="80" width="8" height="8" fill="#1a1a2e"/><rect x="16" y="80" width="8" height="8" fill="#1a1a2e"/><rect x="24" y="80" width="8" height="8" fill="#16213e"/><rect x="32" y="80" width="8" height="8" fill="#0f3460"/><rect x="40" y="80" width="8" height="8" fill="#1a1a2e"/><rect x="48" y="80" width="8" height="8" fill="#1a1a2e"/><rect x="56" y="80" width="8" height="8" fill="#16213e"/><rect x="64" y="80" width="8" height="8" fill="#0f3460"/><rect x="72" y="80" width="8" height="8" fill="#1a1a2e"/><rect x="0" y="88" width="8" height="8" fill="#1a1a2e"/><rect x="8" y="88" width="8" height="8" fill="#1a1a2e"/><rect x="16" y="88" width="8" height="8" fill="#16213e"/><rect x="24" y="88" width="8" height="8" fill="#0f3460"/><rect x="32" y="88" width="8" height="8" fill="#1a1a2e"/><rect x="40" y="88" width="8" height="8" fill="#1a1a2e"/><rect x="48" y="88" width="8" height="8" fill="#16213e"/><rect x="56" y="88" width="8" height="8" fill="#0f3460"/><rect x="64" y="88" width="8" height="8" fill="#1a1a2e"/><rect x="72" y="88" width="8" height="8" fill="#1a1a2e"/><rect x="0" y="96" width="8" height="8" fill="#1a1a2e"/><rect x="8" y="96" width="8" height="8" fill="#16213e"/><rect x="16" y="96" width="8" height="8" fill="#0f3460"/><rect x="24" y="96" width="8" height="8" fill="#1a1a2e"/><rect x="32" y="96" width="8" height="8" fill="#1a1a2e"/><rect x="40" y="96" width="8" height="8" fill="#16213e"/><rect x="48" y="96" width="8" height="8" fill="#0f3460"/><rect x="56" y="96" width="8" height="8" fill="#1a1a2e"/><rect x="64" y="96" width="8" height="8" fill="#1a1a2e"/><rect x="72" y="96" width="8" height="8" fill="#16213e"/><rect x="0" y="104" width="8" height="8" fill="#16213e"/><rect x="8" y="104" width="8" height="8" fill="#0f3460"/><rect x="16" y="104" width="8" height="8" fill="#1a1a2e"/><rect x="24" y="104" width="8" height="8" fill="#1a1a2e"/><rect x="32" y="104" width="8" height="8" fill="#16213e"/><rect x="40" y="104" width="8" height="8" fill="#0f3460"/><rect x="48" y="104" width="8" height="8" fill="#1a1a2e"/><rect x="56" y="104" width="8" height="8" fill="#1a1a2e"/><rect x="64" y="104" width="8" height="8" fill="#16213e"/><rect x="72" y="104" width="8" height="8" fill="#0f3460"/>
  <rect x="6" y="6" width="4" height="4" fill="#e94560" opacity="0.8"/><rect x="22" y="6" width="4" height="4" fill="#e94560" opacity="0.8"/><rect x="38" y="6" width="4" height="4" fill="#e94560" opacity="0.8"/><rect x="54" y="6" width="4" height="4" fill="#e94560" opacity="0.8"/><rect x="70" y="6" width="4" height="4" fill="#e94560" opacity="0.8"/><rect x="6" y="22" width="4" height="4" fill="#e94560" opacity="0.8"/><rect x="22" y="22" width="4" height="4" fill="#e94560" opacity="0.8"/><rect x="38" y="22" width="4" height="4" fill="#e94560" opacity="0.8"/><rect x="54" y="22" width="4" height="4" fill="#e94560" opacity="0.8"/><rect x="70" y="22" width="4" height="4" fill="#e94560" opacity="0.8"/><rect x="6" y="38" width="4" height="4" fill="#e94560" opacity="0.8"/><rect x="22" y="38" width="4" height="4" fill="#e94560" opacity="0.8"/><rect x="38" y="38" width="4" height="4" fill="#e94560" opacity="0.8"/><rect x="54" y="38" width="4" height="4" fill="#e94560" opacity="0.8"/><rect x="70" y="38" width="4" height="4" fill="#e94560" opacity="0.8"/><rect x="6" y="54" width="4" height="4" fill="#e94560" opacity="0.8"/><rect x="22" y="54" width="4" height="4" fill="#e94560" opacity="0.8"/><rect x="38" y="54" width="4" height="4" fill="#e94560" opacity="0.8"/><rect x="54" y="54" width="4" height="4" fill="#e94560" opacity="0.8"/><rect x="70" y="54" width="4" height="4" fill="#e94560" opacity="0.8"/><rect x="6" y="70" width="4" height="4" fill="#e94560" opacity="0.8"/><rect x="22" y="70" width="4" height="4" fill="#e94560" opacity="0.8"/><rect x="38" y="70" width="4" height="4" fill="#e94560" opacity="0.8"/><rect x="54" y="70" width="4" height="4" fill="#e94560" opacity="0.8"/><rect x="70" y="70" width="4" height="4" fill="#e94560" opacity="0.8"/><rect x="6" y="86" width="4" height="4" fill="#e94560" opacity="0.8"/><rect x="22" y="86" width="4" height="4" fill="#e94560" opacity="0.8"/><rect x="38" y="86" width="4" height="4" fill="#e94560" opacity="0.8"/><rect x="54" y="86" width="4" height="4" fill="#e94560" opacity="0.8"/><rect x="70" y="86" width="4" height="4" fill="#e94560" opacity="0.8"/><rect x="6" y="102" width="4" height="4" fill="#e94560" opacity="0.8"/><rect x="22" y="102" width="4" height="4" fill="#e94560" opacity="0.8"/><rect x="38" y="102" width="4" height="4" fill="#e94560" opacity="0.8"/><rect x="54" y="102" width="4" height="4" fill="#e94560" opacity="0.8"/><rect x="70" y="102" width="4" height="4" fill="#e94560" opacity="0.8"/>
  <!-- Border -->
  <rect x="0" y="0" width="80" height="2" fill="#e94560"/>
  <rect x="0" y="110" width="80" height="2" fill="#e94560"/>
  <rect x="0" y="0" width="2" height="112" fill="#e94560"/>
  <rect x="78" y="0" width="2" height="112" fill="#e94560"/>
</svg>